<svg viewBox="0 0 364.001 269.596" fill="none" xmlns="http://www.w3.org/2000/svg"
  xmlns:xlink="http://www.w3.org/1999/xlink">
  <path id="path"
    d="M181.539 239C153.269 239.079 126.139 227.856 106.199 207.833C86.159 187.912 74.919 160.808 74.9991 132.562C74.9991 122.91 76.299 113.301 78.8791 104L80.0091 104.318C77.459 113.51 76.169 123.005 76.179 132.544C76.179 190.585 123.439 237.806 181.539 237.806C202.899 237.848 223.759 231.365 241.329 219.229L241.999 220.194C224.239 232.473 203.139 239.036 181.539 239Z"
    fill-rule="evenodd" fill="currentColor" />
  <path id="path"
    d="M267.749 195L266.799 194.312C279.859 176.364 286.869 154.725 286.809 132.53C286.889 104.582 275.779 77.765 255.949 58.056C236.239 38.232 209.419 27.113 181.449 27.177C146.979 27.201 114.689 44.055 94.969 72.319L93.999 71.643C113.949 43.065 146.589 26.024 181.449 26.001C209.729 25.918 236.859 37.147 256.799 57.186C276.849 77.117 288.079 104.237 287.999 132.501C288.069 154.955 280.969 176.846 267.749 195Z"
    fill-rule="evenodd" fill="currentColor" />
  <path id="path"
    d="M350.309 266C338.189 266 318.379 259.756 292.289 247.545C253.839 229.544 206.149 200.759 158.099 166.485C110.039 132.21 67.2389 96.55 37.7289 66.073C7.98893 35.413 -4.83114 13.497 1.63895 4.42303C6.24894 -2.02798 20.2589 -1.40897 42.1789 6.19205C63.2589 13.521 90.8889 26.97 122.049 45.106L122.849 45.5721L122.089 46.103C111.989 53.05 103.179 61.698 96.0489 71.663C92.9588 75.991 98.9088 86.869 112.479 101.367C126.419 116.279 146.809 133.543 169.879 149.987C192.939 166.432 215.899 180.058 234.569 188.395C252.699 196.496 264.869 198.648 267.979 194.291C275.119 184.316 280.459 173.167 283.739 161.349L283.999 160.453L284.699 161.043C311.979 184.592 333.669 206.313 347.489 223.849C361.829 242.074 366.959 255.098 362.369 261.584C360.259 264.538 356.179 266 350.309 266ZM13.5689 1.16803C8.2089 1.16803 4.46891 2.45303 2.57889 5.10703C-3.44113 13.544 9.65885 35.4601 38.5689 65.248C68.0689 95.672 110.769 131.285 158.789 165.518C206.819 199.751 254.399 228.501 292.789 246.478C330.379 264.072 355.389 269.326 361.409 260.894C369.969 248.895 339.849 210.335 284.629 162.558C281.289 174.169 275.989 185.124 268.959 194.951C265.419 199.892 253.029 197.935 234.079 189.462C215.369 181.101 192.319 167.416 169.179 150.931C146.039 134.445 125.599 117.128 111.599 102.163C97.4389 86.9991 91.5388 75.937 95.0388 71.0201C102.059 61.207 110.739 52.587 120.619 45.655C71.4189 17.129 32.4489 1.16803 13.5689 1.16803Z"
    fill-rule="evenodd" fill="currentColor" />
  <path id="path"
    d="M330.779 247C318.399 247 294.879 236.136 279.929 228.524C247.379 211.96 206.569 186.503 165.009 156.845C123.449 127.186 86.0888 96.867 59.8388 71.475C44.5088 56.651 19.7388 30.468 25.9888 21.694C29.0387 17.421 38.5788 18.236 54.3488 24.107C69.1787 29.636 89.1388 39.562 112.139 52.81L111.549 53.831C64.7787 26.851 32.3688 14.801 26.9688 22.384C22.7688 28.285 35.0588 45.847 60.6687 70.625C86.8788 95.999 124.179 126.254 165.699 155.883C207.219 185.512 247.969 210.933 280.459 227.474C312.219 243.637 332.839 249.532 337.029 243.648C342.439 236.072 320.519 209.346 279.789 173.899L280.559 173.007C300.559 190.415 316.439 206.053 326.489 218.304C337.169 231.286 341.039 240.061 337.989 244.339C336.659 246.204 334.119 247 330.779 247Z"
    fill-rule="evenodd" fill="currentColor" />
  <path id="path"
    d="M25.639 236.506L30.5889 213.456L35.5389 236.506L58.5889 241.456L35.5389 246.406L30.5889 269.456L25.639 246.406L2.5889 241.456L25.639 236.506Z"
    stroke="currentColor" stroke-width="1.333330" />
  <path id="path"
    d="M325.349 22.628L328.089 9.45602L330.829 22.628L343.589 25.456L330.829 28.284L328.089 41.456L325.349 28.284L312.589 25.456L325.349 22.628Z"
    stroke="currentColor" stroke-width="1.333330" />
</svg>